# Blender v2.79 (sub 0) OBJ File: ''
# www.blender.org
mtllib box.mtl
o Cube.002
v -5.858173 -0.986656 -5.062748
v -3.924033 -0.479460 -5.105772
v -5.704177 -1.408588 -3.113836
v -3.770036 -0.901392 -3.156859
v -6.343338 0.901392 -4.615657
v -4.409197 1.408588 -4.658680
v -6.189341 0.479460 -2.666745
v -4.255200 0.986656 -2.709768
vn 0.2426 -0.9440 -0.2235
vn 0.0770 -0.2110 0.9745
vn -0.2426 0.9440 0.2235
vn -0.0770 0.2110 -0.9745
vn -0.9671 -0.2536 0.0215
vn 0.9671 0.2536 -0.0215
usemtl None
s off
f 1//1 2//1 4//1 3//1
f 3//2 4//2 8//2 7//2
f 7//3 8//3 6//3 5//3
f 5//4 6//4 2//4 1//4
f 3//5 7//5 5//5 1//5
f 8//6 4//6 2//6 6//6
o Cube.001
v 0.917298 -1.347075 -4.026000
v 2.742412 -0.805868 -3.412769
v 0.220658 -1.104124 -2.167057
v 2.045772 -0.562917 -1.553826
v 0.488754 0.562917 -4.436220
v 2.313868 1.104124 -3.822989
v -0.207886 0.805868 -2.577278
v 1.617228 1.347075 -1.964047
vn 0.2143 -0.9550 0.2051
vn -0.3483 0.1215 0.9295
vn -0.2143 0.9550 -0.2051
vn 0.3483 -0.1215 -0.9295
vn -0.9126 -0.2706 -0.3066
vn 0.9126 0.2706 0.3066
usemtl None
s off
f 9//7 10//7 12//7 11//7
f 11//8 12//8 16//8 15//8
f 15//9 16//9 14//9 13//9
f 13//10 14//10 10//10 9//10
f 11//11 15//11 13//11 9//11
f 16//12 12//12 10//12 14//12
o Cube
v 1.104783 -0.940066 -1.247381
v 1.101234 -0.933535 0.734298
v -0.880454 -0.930657 0.730739
v -0.876904 -0.937188 -1.250940
v 1.107673 1.041615 -1.253906
v 1.104123 1.048145 0.727773
v -0.877565 1.051023 0.724213
v -0.874015 1.044492 -1.257466
vn -0.0015 -1.0000 0.0033
vn 0.0015 1.0000 -0.0033
vn 1.0000 -0.0015 0.0018
vn -0.0018 0.0033 1.0000
vn -1.0000 0.0015 -0.0018
vn 0.0018 -0.0033 -1.0000
usemtl Material
s off
f 17//13 18//13 19//13 20//13
f 21//14 24//14 23//14 22//14
f 17//15 21//15 22//15 18//15
f 18//16 22//16 23//16 19//16
f 19//17 23//17 24//17 20//17
f 21//18 17//18 20//18 24//18
